# File created by Blade
# Date/Time:  Tue Sep 30 19:11:22 2014
#---------------------------------------------------------
:version 1.10
:name HOM
:units
  mass 1.0
  length 1.000000
  angle deg
:documentation
     Acclaim Skeleton File
:root
   axis xyz
   order TX TY TZ RX RY RZ
   position 0.000000 0.000000 0.000000
   orientation 0 0 0
:bonedata
   begin
      id 1
      name Spine_dum
      direction 0.000000 1.000000 0.000000
      length 7.508948
      axis 0.0 0.0 0.0 xyz
   end
   begin
      id 2
      name LeftUpLeg_dum
      direction 1.000000 0.000000 0.000000
      length 3.000560
      axis 0.0 0.0 0.0 xyz
   end
   begin
      id 3
      name RightUpLeg_dum
      direction -1.000000 0.000000 0.000000
      length 3.000560
      axis 0.0 0.0 0.0 xyz
   end
   begin
      id 4
      name Spine
      direction 0.000000 1.000000 0.000000
      length 0.000000
      axis 0.0 0.0 0.0 xyz
      dof rx ry rz
   end
   begin
      id 5
      name Spine_dum1
      direction 0.000000 1.000000 0.000000
      length 13.861154
      axis 0.0 0.0 0.0 xyz
   end
   begin
      id 6
      name Spine_dum2
      direction 0.000000 1.000000 0.000000
      length 8.204781
      axis 0.0 0.0 0.0 xyz
   end
   begin
      id 7
      name Spine_dum3
      direction 0.000000 1.000000 0.000000
      length 8.204781
      axis 0.0 0.0 0.0 xyz
   end
   begin
      id 8
      name Head
      direction 0.000000 1.000000 0.000000
      length 4.527550
      axis 0.0 0.0 0.0 xyz
      dof rx ry rz
   end
   begin
      id 9
      name LeftShoulder
      direction 1.000000 0.000000 0.000000
      length 6.635956
      axis 0.0 0.0 -90.0 xyz
      dof rx ry rz
   end
   begin
      id 10
      name LeftArm
      direction 1.000000 0.000000 0.000000
      length 10.274218
      axis 0.0 0.0 -90.0 xyz
      dof rx ry rz
   end
   begin
      id 11
      name LeftForeArm
      direction 1.000000 0.000000 0.000000
      length 8.522147
      axis 0.0 0.0 -90.0 xyz
      dof ry rz rx
   end
   begin
      id 12
      name LeftHand
      direction 0.000000 0.000000 0.000000
      length 0.000000
      axis 0.0 0.0 -90.0 xyz
      dof rx ry rz
   end
   begin
      id 13
      name LeftHand_dum1
      direction 0.000000 0.000000 0.000000
      length 0.000000
      axis 0.0 0.0 -90.0 xyz
   end
   begin
      id 14
      name LeftHand_dum2
      direction 1.000000 0.000000 0.000000
      length 3.937000
      axis 0.0 0.0 -90.0 xyz
   end
   begin
      id 15
      name LeftHandThumb1
      direction 0.000000 0.000000 1.000000
      length 3.937000
      axis 0.0 0.0 -90.0 xyz
      dof rx rz ry
   end
   begin
      id 16
      name RightShoulder
      direction -1.000000 0.000000 0.000000
      length 6.635956
      axis 0.0 0.0 90.0 xyz
      dof rx ry rz
   end
   begin
      id 17
      name RightArm
      direction -1.000000 0.000000 0.000000
      length 10.274218
      axis 0.0 0.0 90.0 xyz
      dof rx ry rz
   end
   begin
      id 18
      name RightForeArm
      direction -1.000000 0.000000 0.000000
      length 8.522147
      axis 0.0 0.0 90.0 xyz
      dof ry rz rx
   end
   begin
      id 19
      name RightHand
      direction 0.000000 0.000000 0.000000
      length 0.000000
      axis 0.0 0.0 90.0 xyz
      dof rx ry rz
   end
   begin
      id 20
      name RightHand_dum1
      direction 0.000000 0.000000 0.000000
      length 0.000000
      axis 0.0 0.0 90.0 xyz
   end
   begin
      id 21
      name RightHand_dum2
      direction -1.000000 0.000000 0.000000
      length 3.937000
      axis 0.0 0.0 90.0 xyz
   end
   begin
      id 22
      name RightHandThumb1
      direction 0.000000 0.000000 1.000000
      length 3.937000
      axis 0.0 0.0 90.0 xyz
      dof rx rz ry
   end
   begin
      id 23
      name LeftUpLeg
      direction 0.000000 -1.000000 0.000000
      length 16.490845
      axis 0.0 0.0 0.0 xyz
      dof rx ry rz
   end
   begin
      id 24
      name LeftLeg
      direction 0.000000 -1.000000 0.000000
      length 14.556576
      axis 0.0 0.0 0.0 xyz
      dof rx ry rz
   end
   begin
      id 25
      name LeftFoot
      direction 0.000000 -0.258819 0.965926
      length 4.831116
      axis 15.0 0.0 0.0 xyz
      dof rx ry rz
   end
   begin
      id 26
      name LeftToeBase
      direction 0.000000 0.000000 1.000000
      length 2.952750
      axis 0.0 0.0 0.0 xyz
      dof rx ry rz
   end
   begin
      id 27
      name RightUpLeg
      direction 0.000000 -1.000000 0.000000
      length 16.490845
      axis 0.0 0.0 0.0 xyz
      dof rx ry rz
   end
   begin
      id 28
      name RightLeg
      direction 0.000000 -1.000000 0.000000
      length 14.556576
      axis 0.0 0.0 0.0 xyz
      dof rx ry rz
   end
   begin
      id 29
      name RightFoot
      direction 0.000000 -0.258819 0.965926
      length 4.831116
      axis 15.0 0.0 0.0 xyz
      dof rx ry rz
   end
   begin
      id 30
      name RightToeBase
      direction 0.000000 0.000000 1.000000
      length 2.952750
      axis 0.0 0.0 0.0 xyz
      dof rx ry rz
   end
:hierarchy
   begin
      root Spine_dum LeftUpLeg_dum RightUpLeg_dum
      Spine_dum Spine
      LeftUpLeg_dum LeftUpLeg
      RightUpLeg_dum RightUpLeg
      Spine Spine_dum1 Spine_dum2 Spine_dum3
      Spine_dum1 Head
      Spine_dum2 LeftShoulder
      Spine_dum3 RightShoulder
      LeftShoulder LeftArm
      LeftArm LeftForeArm
      LeftForeArm LeftHand
      LeftHand LeftHand_dum1 LeftHand_dum2
      LeftHand_dum1 LeftHandThumb1
      RightShoulder RightArm
      RightArm RightForeArm
      RightForeArm RightHand
      RightHand RightHand_dum1 RightHand_dum2
      RightHand_dum1 RightHandThumb1
      LeftUpLeg LeftLeg
      LeftLeg LeftFoot
      LeftFoot LeftToeBase
      RightUpLeg RightLeg
      RightLeg RightFoot
      RightFoot RightToeBase
   end

# File created by Blade
# Date/Time:  Thu Sep 25 14:26:36 2014
# Frame Rate: 120.000 fps
#------------------------------------------------------
:FULLY-SPECIFIED
:DEGREES
145
root -2.555378 32.746040 -0.627397 10.394444 -0.843664 -1.133904
Spine -10.570456 5.358704 1.518406
Head -4.739892 -4.235599 8.384779
LeftShoulder -12.163115 17.744242 27.694338
LeftArm 22.629933 -18.752626 -32.474913
LeftForeArm 8.841155 0.000000 12.810181
LeftHand -28.650157 -0.000000 -3.470752
LeftHandThumb1 -26.253704 0.000000 33.147579
RightShoulder -18.271905 15.744547 -40.442058
RightArm -10.230996 6.095898 35.457308
RightForeArm -28.935320 0.000000 16.717261
RightHand -12.239961 -0.000000 7.212714
RightHandThumb1 -24.326973 -0.000000 -32.862282
LeftUpLeg -3.411960 2.950944 1.067247
LeftLeg -2.987922 -0.000000 0.000000
LeftFoot -9.875063 5.999830 -16.452401
LeftToeBase 3.755739 -0.000000 -0.000000
RightUpLeg -6.039083 -7.944042 1.905646
RightLeg 1.699996 -0.000000 -0.000000
RightFoot -9.711075 -2.727153 -5.950880
RightToeBase -0.925469 -0.000000 0.000000
146
root -2.554840 32.745893 -0.628519 10.392872 -0.832070 -1.142386
Spine -10.562753 5.330055 1.531437
Head -4.753875 -4.211113 8.406793
LeftShoulder -12.144602 17.687924 27.692515
LeftArm 22.538832 -18.733497 -32.423141
LeftForeArm 8.905712 -0.000000 12.794747
LeftHand -28.606652 0.000000 -3.717905
LeftHandThumb1 -26.253704 0.000000 33.147579
RightShoulder -18.257963 15.780947 -40.455098
RightArm -10.253992 6.102156 35.469731
RightForeArm -28.996900 -0.000000 16.703747
RightHand -12.237146 -0.000000 7.222269
RightHandThumb1 -24.326973 -0.000000 -32.862282
LeftUpLeg -3.411255 2.936940 1.078419
LeftLeg -2.991372 -0.000000 0.000000
LeftFoot -9.877096 5.991572 -16.471312
LeftToeBase 3.767774 -0.000000 -0.000000
RightUpLeg -6.043954 -7.960027 1.915786
RightLeg 1.713555 -0.000000 -0.000000
RightFoot -9.722088 -2.726166 -5.938528
RightToeBase -0.933531 -0.000000 0.000000
147
root -2.553456 32.746128 -0.629112 10.389818 -0.838464 -1.144323
Spine -10.553019 5.333348 1.547072
Head -4.779147 -4.190914 8.385941
LeftShoulder -12.142524 17.684247 27.673980
LeftArm 22.521023 -18.741441 -32.407316
LeftForeArm 8.885265 0.000000 12.776692
LeftHand -28.560584 -0.000000 -3.704674
LeftHandThumb1 -26.253704 0.000000 33.147579
RightShoulder -18.257792 15.779830 -40.428374
RightArm -10.243860 6.077179 35.435127
RightForeArm -28.928008 -0.000000 16.712215
RightHand -12.241883 -0.000000 7.192248
RightHandThumb1 -24.326973 -0.000000 -32.862282
LeftUpLeg -3.409702 2.960659 1.076348
LeftLeg -2.989425 -0.000000 0.000000
LeftFoot -9.875191 5.976065 -16.471117
LeftToeBase 3.769840 -0.000000 -0.000000
RightUpLeg -6.044914 -7.940244 1.912714
RightLeg 1.724976 -0.000000 -0.000000
RightFoot -9.719965 -2.737552 -5.904375
RightToeBase -0.949571 -0.000000 0.000000
148
root -2.552732 32.746022 -0.629643 10.392135 -0.838885 -1.145335
Spine -10.552002 5.351280 1.548044
Head -4.804454 -4.209481 8.386689
LeftShoulder -12.138693 17.691064 27.682478
LeftArm 22.542665 -18.736073 -32.417136
LeftForeArm 8.838141 0.000000 12.765239
LeftHand -28.595204 -0.000000 -3.542896
LeftHandThumb1 -26.253704 0.000000 33.147579
RightShoulder -18.275053 15.782106 -40.432374
RightArm -10.259163 6.073693 35.425283
RightForeArm -28.941038 -0.000000 16.713754
RightHand -12.218262 -0.000000 7.185730
RightHandThumb1 -24.326973 -0.000000 -32.862282
LeftUpLeg -3.411792 2.947748 1.081489
LeftLeg -2.990096 -0.000000 0.000000
LeftFoot -9.870267 5.997676 -16.491016
LeftToeBase 3.774901 -0.000000 -0.000000
RightUpLeg -6.050375 -7.960259 1.913649
RightLeg 1.723924 -0.000000 -0.000000
RightFoot -9.727634 -2.698118 -5.911237
RightToeBase -0.911518 -0.000000 0.000000
149
root -2.551450 32.745842 -0.630847 10.389459 -0.840701 -1.143591
Spine -10.539950 5.341181 1.556421
Head -4.835487 -4.202222 8.379606
LeftShoulder -12.145886 17.671578 27.671970
LeftArm 22.524516 -18.720479 -32.395935
LeftForeArm 8.828355 0.000000 12.743990
LeftHand -28.586153 -0.000000 -3.511949
LeftHandThumb1 -26.253704 0.000000 33.147579
RightShoulder -18.272377 15.770537 -40.423092
RightArm -10.247260 6.057374 35.427225
RightForeArm -28.914557 -0.000000 16.715049
RightHand -12.242855 -0.000000 7.145782
RightHandThumb1 -24.326973 -0.000000 -32.862282
LeftUpLeg -3.409849 2.956058 1.076180
LeftLeg -2.991954 -0.000000 0.000000
LeftFoot -9.866415 5.961058 -16.498469
LeftToeBase 3.765158 -0.000000 -0.000000
RightUpLeg -6.055118 -7.956973 1.910937
RightLeg 1.732642 -0.000000 -0.000000
RightFoot -9.721816 -2.723094 -5.925328
RightToeBase -0.937159 -0.000000 0.000000
150
root -2.551384 32.745812 -0.631204 10.388369 -0.842095 -1.147964
Spine -10.538701 5.340967 1.560947
Head -4.849761 -4.199895 8.391543
LeftShoulder -12.151313 17.687845 27.672532
LeftArm 22.537836 -18.746707 -32.406499
LeftForeArm 8.857688 -0.000000 12.741535
LeftHand -28.593416 -0.000000 -3.482866
LeftHandThumb1 -26.253704 0.000000 33.147579
RightShoulder -18.268754 15.792029 -40.418407
RightArm -10.268859 6.041299 35.413396
RightForeArm -28.908351 -0.000000 16.709051
RightHand -12.210715 0.000000 7.130075
RightHandThumb1 -24.326973 -0.000000 -32.862282
LeftUpLeg -3.405912 2.947915 1.083472
LeftLeg -2.996711 -0.000000 0.000000
LeftFoot -9.868933 5.987339 -16.513754
LeftToeBase 3.803342 -0.000000 -0.000000
RightUpLeg -6.056949 -7.954334 1.915623
RightLeg 1.741778 -0.000000 -0.000000
RightFoot -9.727027 -2.726849 -5.883941
RightToeBase -0.933335 -0.000000 0.000000
151
root -2.550339 32.745547 -0.631577 10.384623 -0.841663 -1.144548
Spine -10.531319 5.346057 1.562657
Head -4.873486 -4.213431 8.389814
LeftShoulder -12.144810 17.682080 27.669790
LeftArm 22.521220 -18.797520 -32.414417
LeftForeArm 8.849813 -0.000000 12.799234
LeftHand -28.688619 -0.000000 -3.572648
LeftHandThumb1 -26.253704 0.000000 33.147579
RightShoulder -18.271932 15.790123 -40.419492
RightArm -10.285355 6.061348 35.406652
RightForeArm -28.917547 0.000000 16.723937
RightHand -12.226385 -0.000000 7.137629
RightHandThumb1 -24.326973 -0.000000 -32.862282
LeftUpLeg -3.400604 2.954123 1.079558
LeftLeg -3.001654 -0.000000 0.000000
LeftFoot -9.865898 5.942370 -16.529645
LeftToeBase 3.745354 -0.000000 -0.000000
RightUpLeg -6.062250 -7.964260 1.912310
RightLeg 1.761521 -0.000000 -0.000000
RightFoot -9.747975 -2.722951 -5.853246
RightToeBase -0.932162 -0.000000 0.000000
152
root -2.549763 32.745181 -0.631732 10.380568 -0.842252 -1.143706
Spine -10.524222 5.339504 1.565634
Head -4.895591 -4.196389 8.401236
LeftShoulder -12.161821 17.681006 27.673830
LeftArm 22.522595 -18.780034 -32.413528
LeftForeArm 8.864022 -0.000000 12.823117
LeftHand -28.726130 -0.000000 -3.573683
LeftHandThumb1 -26.253704 0.000000 33.147579
RightShoulder -18.266399 15.764783 -40.429429
RightArm -10.309260 6.112321 35.436648
RightForeArm -29.056077 -0.000000 16.758603
RightHand -12.221827 -0.000000 7.085824
RightHandThumb1 -24.326973 -0.000000 -32.862282
LeftUpLeg -3.394579 2.952050 1.080481
LeftLeg -3.003440 -0.000000 0.000000
LeftFoot -9.860889 5.929759 -16.544703
LeftToeBase 3.695042 -0.000000 -0.000000
RightUpLeg -6.061270 -7.982136 1.911812
RightLeg 1.755754 -0.000000 -0.000000
RightFoot -9.766967 -2.694628 -5.823226
RightToeBase -0.844204 -0.000000 0.000000
153
root -2.550454 32.744998 -0.632155 10.377635 -0.850418 -1.153258
Spine -10.518215 5.345829 1.579760
Head -4.905082 -4.197682 8.399288
LeftShoulder -12.171916 17.694653 27.666973
LeftArm 22.531880 -18.769678 -32.402314
LeftForeArm 8.840205 -0.000000 12.828512
LeftHand -28.860971 -0.000000 -3.474574
LeftHandThumb1 -26.253704 0.000000 33.147579
RightShoulder -18.273104 15.773376 -40.411179
RightArm -10.279404 6.060351 35.410860
RightForeArm -28.922396 -0.000000 16.732970
RightHand -12.274256 -0.000000 7.123763
RightHandThumb1 -24.326973 -0.000000 -32.862282
LeftUpLeg -3.385332 2.949047 1.097044
LeftLeg -3.016200 -0.000000 0.000000
LeftFoot -9.861428 5.947841 -16.576344
LeftToeBase 3.758630 -0.000000 -0.000000
RightUpLeg -6.062443 -7.951592 1.920520
RightLeg 1.771098 -0.000000 -0.000000
RightFoot -9.750043 -2.734345 -5.852498
RightToeBase -0.911552 -0.000000 0.000000
